<svg width="131" height="417" viewBox="0 0 131 417" fill="none" xmlns="http://www.w3.org/2000/svg">
<path fill-rule="evenodd" clip-rule="evenodd" d="M1.1122 315.956C5.29758 271.533 80.0609 260.007 86.5757 215.849C94.3131 163.405 21.5071 118.65 37.6765 68.122C51.6677 24.4006 109.901 7.41208 155.071 1.80683C198.322 -3.56029 239.238 18.4929 277.897 38.3127C310.5 55.0271 348.122 72.9054 361.061 107.413C373.926 141.72 334.556 179.234 344.029 214.672C353.273 249.256 407.586 259.693 411.302 295.36C414.799 328.928 388.466 361.598 361.446 381.838C335.43 401.326 300.508 404.508 268.314 402.47C241.266 400.757 221.937 369.654 194.855 371.289C149.572 374.023 111.373 427.001 67.8527 414.572C29.1394 403.516 -2.70363 356.457 1.1122 315.956Z" fill="#0071FF"/>
</svg>
