<svg width="351" height="65" viewBox="0 0 351 65" fill="none" xmlns="http://www.w3.org/2000/svg">
<path fill-rule="evenodd" clip-rule="evenodd" d="M331.98 139.94C344.009 170.952 356.361 204.29 347.725 235.979C338.809 268.689 312.53 293.444 284.81 313.008C257.281 332.436 225.208 346.477 191.088 346.524C157.795 346.57 128.449 328.239 98.467 313.263C66.9064 297.497 29.1734 287.133 11.4568 256.793C-6.36965 226.266 2.6216 188.875 5.52303 154.098C8.39359 119.691 3.37502 79.1831 28.2552 55.4434C53.1288 31.71 95.2932 46.2073 128.615 36.649C159.292 27.849 183.896 -4.79143 215.461 1.74316C246.994 8.27116 262.007 43.9158 282.792 68.5671C301.828 91.1444 321.363 112.566 331.98 139.94Z" fill="#0071FF"/>
</svg>
