<svg width="108" height="417" viewBox="0 0 108 417" fill="none" xmlns="http://www.w3.org/2000/svg">
<path fill-rule="evenodd" clip-rule="evenodd" d="M107.016 99.4263C103.526 143.909 28.9516 156.603 23.128 200.857C16.2115 253.416 89.7083 297.027 74.331 347.802C61.0251 391.737 3.06466 409.634 -42.0125 415.944C-85.1745 421.987 -126.43 400.576 -165.395 381.363C-198.254 365.161 -236.151 347.873 -249.629 313.572C-263.028 279.47 -224.249 241.345 -234.275 206.059C-244.059 171.625 -298.528 162.038 -302.802 126.433C-306.824 92.9236 -281.004 59.8466 -254.304 39.1864C-228.596 19.2941 -193.727 15.5658 -161.506 17.1008C-134.434 18.3905 -114.622 49.1878 -87.5686 47.1296C-42.3338 43.6881 -4.96768 -9.88149 38.7416 1.86587C77.6231 12.3157 110.198 58.871 107.016 99.4263Z" fill="#0071FF"/>
</svg>
